<svg xmlns="http://www.w3.org/2000/svg" viewBox="0 0 640 400"><rect width="640" height="400" fill="#eef2ff"/><rect width="640" height="40" fill="#ffffff"/><circle cx="20" cy="20" r="5" fill="#6366f1"/><circle cx="38" cy="20" r="5" fill="#a5b4fc"/><circle cx="56" cy="20" r="5" fill="#c7d2fe"/><rect x="24" y="68" width="360" height="24" rx="4" fill="#6366f1"/><rect x="24" y="104" width="280" height="12" rx="3" fill="#a5b4fc"/><rect x="24" y="148" width="180" height="120" rx="8" fill="#6366f1"/><rect x="220" y="148" width="180" height="120" rx="8" fill="#ffffff"/><rect x="416" y="148" width="180" height="120" rx="8" fill="#ffffff"/><rect x="232" y="162" width="120" height="10" rx="3" fill="#a5b4fc"/><rect x="232" y="182" width="156" height="8" rx="3" fill="#c7d2fe"/><rect x="428" y="162" width="120" height="10" rx="3" fill="#a5b4fc"/><rect x="428" y="182" width="156" height="8" rx="3" fill="#c7d2fe"/><rect x="24" y="300" width="572" height="10" rx="3" fill="#c7d2fe"/><rect x="24" y="322" width="500" height="10" rx="3" fill="#c7d2fe"/><rect x="24" y="344" width="430" height="10" rx="3" fill="#c7d2fe"/></svg>